<svg xmlns="http://www.w3.org/2000/svg" width="325" height="210"><defs><clipPath id="a"><path fill="#fff" d="M102 80h121c10.493 0 19 8.507 19 19v12c0 10.493-8.507 19-19 19H102c-10.493 0-19-8.507-19-19V99c0-10.493 8.507-19 19-19z"/></clipPath></defs><path d="M0 102v-5h296.739v5zm28.26 10v-5H325v5z"/><path fill="#fad663" d="M102 80h121c10.493 0 19 8.507 19 19v12c0 10.493-8.507 19-19 19H102c-10.493 0-19-8.507-19-19V99c0-10.493 8.507-19 19-19z"/><path fill="none" stroke="#000" stroke-miterlimit="20" stroke-width="8" d="M102 80h121c10.493 0 19 8.507 19 19v12c0 10.493-8.507 19-19 19H102c-10.493 0-19-8.507-19-19V99c0-10.493 8.507-19 19-19z" clip-path="url(&quot;#a&quot;)"/><text dominant-baseline="text-before-edge" style="line-height:78px" font-family="'BigJohn','BigJohn'" font-size="18" font-style="none" font-weight="400" transform="translate(112 98)"><tspan style="font-kerning:normal" letter-spacing=".9">SEE MORE</tspan></text></svg>