<svg xmlns="http://www.w3.org/2000/svg" width="31" height="225"><defs><clipPath id="a"><path fill="#fff" d="M15.5 144c8.56 0 15.5 6.94 15.5 15.5v27c0 8.56-6.94 15.5-15.5 15.5C6.94 202 0 195.06 0 186.5v-27c0-8.56 6.94-15.5 15.5-15.5z"/></clipPath></defs><path d="M13 0h5v25h-5zm0 40h5v25h-5zm0 40h5v25h-5zm0 40h5v25h-5zm0 40h5v25h-5zm0 40h5v25h-5zm0 40h5v25h-5zm0 40h5v25h-5zm0 40h5v25h-5zm0 40h5v25h-5zm0 40h5v25h-5zm0 40h5v25h-5z"/><path fill="none" stroke="#000" stroke-miterlimit="20" stroke-width="8" d="M15.5 144c8.56 0 15.5 6.94 15.5 15.5v27c0 8.56-6.94 15.5-15.5 15.5C6.94 202 0 195.06 0 186.5v-27c0-8.56 6.94-15.5 15.5-15.5z" clip-path="url(&quot;#a&quot;)"/></svg>